<svg width="104" height="30" viewBox="0 0 410 125" fill="none" xmlns="http://www.w3.org/2000/svg">
<g clip-path="url(#clip0_3328_264176)">
<path d="M97.8493 103.306L86.3413 84.1786L75.0715 103.306H61.5794L78.9128 74.496L61.2461 47.75H75.3413L86.6588 65.6071L97.4524 47.75H110.945L93.5636 75.3691L111.421 103.306H97.8493Z" fill="black"/>
<path d="M155.278 84.4206C155.278 96.6428 146.072 104.262 134.008 104.262C123.373 104.262 114.421 98.3888 113.548 85.611H125.056C125.849 91.1666 130.294 93.5476 135.135 93.5476C141.167 93.5476 143.77 89.4999 143.77 84.2618C143.77 78.7857 139.722 75.373 134.088 75.373C129.405 75.373 126.31 77.5952 124.881 79.9761H113.881L117.683 47.7539H153.861L152.655 58.5476H126.774L125.746 69.2103C125.746 69.2103 128.465 66.0079 136.703 66.0079C146.627 66.0079 155.278 72.6706 155.278 84.4206Z" fill="black"/>
<path d="M114.909 40.833C108.778 16.9362 89.3295 0.146484 48.9684 0.146484H0.238281L6.85336 44.8766C11.8295 85.2377 27.2661 98.2219 54.5835 103.004C54.7105 103.023 55.5756 103.146 55.5875 102.135C55.5914 101.77 55.3613 101.456 55.0438 101.321C36.5795 93.5473 34.4724 68.0512 30.528 42.4679L27.4764 22.079H55.2938C80.9407 22.079 100.742 21.6743 113.278 41.4719C113.464 41.7497 113.754 41.956 114.099 41.956C114.584 41.956 114.945 41.5632 114.945 41.079C114.945 40.9917 114.933 40.9084 114.909 40.833Z" fill="#5FAF2D"/>
<path d="M221.516 74.3686C221.516 74.3686 224.397 105.265 193.174 105.265C176.698 105.265 164.008 92.6582 164.008 75.5233C164.008 58.3884 176.778 45.7812 193.671 45.7812C206.69 45.7812 217.071 53.2773 221.024 64.813H213.69C210.23 57.2336 202.734 52.2892 193.587 52.2892C180.567 52.2892 170.928 62.1781 170.928 75.69C170.928 88.7892 180.075 98.9241 193.587 98.9241C204.956 98.9241 213.607 91.6741 214.599 80.2217H192.405V74.3725H221.516V74.3686Z" fill="black"/>
<path d="M256.615 58.3034V65.3074C255.873 65.224 254.885 65.1407 253.73 65.1407C244.254 65.1407 237.662 71.3193 237.662 82.9383V104.359H230.825V59.0415H237.662V69.1764C240.381 62.4185 245.817 58.1367 253.809 58.1367C254.885 58.1407 255.956 58.2201 256.615 58.3034Z" fill="black"/>
<path d="M306.655 81.7041C306.655 95.2994 296.357 105.268 283.254 105.268C270.234 105.268 259.937 95.216 259.937 81.7041C259.937 68.1089 270.401 58.1406 283.254 58.1406C296.19 58.1406 306.655 68.1089 306.655 81.7041ZM266.857 81.7041C266.857 91.6724 274.107 98.7597 283.254 98.7597C292.48 98.7597 299.73 91.6724 299.73 81.7041C299.73 71.7359 292.397 64.6486 283.254 64.6486C274.19 64.6486 266.857 71.6525 266.857 81.7041Z" fill="black"/>
<path d="M353.949 59.043V104.36H347.111V95.3803C344.064 101.313 338.79 105.269 330.961 105.269C320.909 105.269 314.893 98.8446 314.893 87.8009V59.0469H321.73V86.4834C321.73 94.5588 325.52 98.7612 332.937 98.7612C341.917 98.7612 347.107 92.3366 347.107 82.2811V59.0469H353.949V59.043Z" fill="black"/>
<path d="M409.508 81.7042C409.508 95.3828 400.611 105.268 388.25 105.268C380.425 105.268 374.325 101.311 370.865 95.2161V124.958H364.028V59.0455H370.865V68.355C374.325 62.1764 380.504 58.1367 388.333 58.1367C400.611 58.1407 409.508 67.9423 409.508 81.7042ZM402.587 81.7042C402.587 71.8153 396.163 64.6486 387.016 64.6486C377.79 64.6486 370.786 71.7359 370.786 81.7042C370.786 91.6724 377.79 98.7597 387.016 98.7597C396.163 98.7597 402.587 91.6724 402.587 81.7042Z" fill="black"/>
</g>
<defs>
<clipPath id="clip0_3328_264176">
<rect width="410" height="125" fill="white"/>
</clipPath>
</defs>
</svg>
