<svg width="27" height="28" viewBox="0 0 27 28" fill="none" xmlns="http://www.w3.org/2000/svg">
<path d="M6.13517 13.9999C6.13517 15.1615 5.46199 15.9711 4.73381 17.1591C3.41605 19.3062 1.94209 21.7789 4.08263 23.9173C6.22317 26.0556 8.6937 24.5838 10.8408 23.2683C12.031 22.5401 12.8384 21.8669 13.9999 21.8669C15.1615 21.8669 15.9711 22.5401 17.1591 23.2683C19.3062 24.5838 21.7767 26.0578 23.9173 23.9173C26.0578 21.7767 24.5838 19.3062 23.2683 17.1591C22.5401 15.9689 21.8669 15.1615 21.8669 13.9999C21.8669 12.8384 22.5401 12.0288 23.2683 10.8408C24.5838 8.6937 26.0578 6.22317 23.9173 4.08263C21.7767 1.94209 19.3062 3.41605 17.1591 4.73381C15.9689 5.46419 15.1615 6.13517 13.9999 6.13517C12.8384 6.13517 12.0288 5.46199 10.8408 4.73381C8.6937 3.41605 6.22097 1.94209 4.08263 4.08263C1.94429 6.22317 3.41605 8.6937 4.73381 10.8408C5.46199 12.0288 6.13517 12.8384 6.13517 13.9999Z" fill="white"/>
</svg>
